<?xml version="1.0" standalone="no"?>
<!DOCTYPE svg PUBLIC "-//W3C//DTD SVG 20010904//EN"
 "http://www.w3.org/TR/2001/REC-SVG-20010904/DTD/svg10.dtd">
<svg version="1.0" xmlns="http://www.w3.org/2000/svg"
 width="356.000000pt" height="356.000000pt" viewBox="0 0 356.000000 356.000000"
 preserveAspectRatio="xMidYMid meet">
<metadata>
Created by potrace 1.14, written by Peter Selinger 2001-2017
</metadata>
<g transform="translate(0.000000,356.000000) scale(0.100000,-0.100000)"
fill="#000000" stroke="none">
<path d="M1580 3550 c-25 -4 -63 -10 -85 -14 -278 -41 -605 -186 -825 -364
-92 -75 -203 -183 -251 -247 -13 -16 -29 -36 -36 -43 -28 -29 -103 -141 -150
-223 -53 -93 -122 -247 -120 -269 0 -3 -5 -16 -12 -29 -17 -32 -47 -140 -72
-264 -16 -76 -22 -147 -24 -282 -2 -163 2 -215 29 -380 27 -162 129 -427 222
-573 19 -29 34 -57 34 -62 0 -6 3 -10 8 -10 4 0 14 -12 23 -28 28 -49 136
-176 210 -249 149 -144 293 -245 474 -333 112 -54 299 -122 375 -135 18 -3 36
-7 39 -9 3 -2 33 -7 66 -11 32 -3 64 -9 69 -12 16 -10 367 -12 426 -2 30 5 73
11 95 15 22 3 60 10 85 16 25 5 52 11 60 13 8 2 60 18 115 35 447 143 834 480
1040 903 50 103 117 281 130 345 41 194 47 248 50 412 2 110 -2 209 -11 265
-16 108 -53 276 -64 290 -4 6 -11 25 -15 43 -10 46 -77 200 -126 290 -260 473
-719 799 -1264 898 -97 17 -417 26 -495 14z"/>
</g>
</svg>
